HIERARCHY
ROOT Hips
{
 OFFSET 0.000000 0.000000 0.000000
 CHANNELS 6 Xposition Yposition Zposition Yrotation Xrotation Zrotation
 JOINT Chest
 {
  OFFSET 0.000000 9.585900 0.002600
  CHANNELS 3 Yrotation Xrotation Zrotation
  JOINT Chest2
  {
   OFFSET 0.000000 9.601200 -0.005300
   CHANNELS 3 Yrotation Xrotation Zrotation
   JOINT Chest3
   {
    OFFSET 0.000000 9.561800 0.000000
    CHANNELS 3 Yrotation Xrotation Zrotation
    JOINT Chest4
    {
     OFFSET 0.000000 9.552100 0.000000
     CHANNELS 3 Yrotation Xrotation Zrotation
     JOINT Neck
     {
      OFFSET 0.000000 14.453000 0.000000
      CHANNELS 3 Yrotation Xrotation Zrotation
      JOINT Head
      {
       OFFSET 0.000000 8.936500 -0.011300
       CHANNELS 3 Yrotation Xrotation Zrotation
       End Site
       {
        OFFSET 0.000000 17.073600 -0.006000
       }
      }
     }
     JOINT RightCollar
     {
      OFFSET -2.921100 9.558500 0.000000
      CHANNELS 3 Yrotation Xrotation Zrotation
      JOINT RightShoulder
      {
       OFFSET -13.519700 0.000000 0.000000
       CHANNELS 3 Yrotation Xrotation Zrotation
       JOINT RightElbow
       {
        OFFSET 0.000000 -29.696600 0.000000
        CHANNELS 3 Yrotation Xrotation Zrotation
        JOINT RightWrist
        {
         OFFSET 0.000000 -24.004700 0.000000
         CHANNELS 3 Yrotation Xrotation Zrotation
         End Site
         {
          OFFSET 0.000000 -17.728500 0.000000
         }
        }
       }
      }
     }
     JOINT LeftCollar
     {
      OFFSET 2.921100 9.558500 0.000000
      CHANNELS 3 Yrotation Xrotation Zrotation
      JOINT LeftShoulder
      {
       OFFSET 13.519700 0.000000 0.000000
       CHANNELS 3 Yrotation Xrotation Zrotation
       JOINT LeftElbow
       {
        OFFSET 0.000000 -29.696600 0.000000
        CHANNELS 3 Yrotation Xrotation Zrotation
        JOINT LeftWrist
        {
         OFFSET 0.000000 -24.004700 0.000000
         CHANNELS 3 Yrotation Xrotation Zrotation
         End Site
         {
          OFFSET 0.000000 -17.728500 0.000000
         }
        }
       }
      }
     }
    }
   }
  }
 }
 JOINT RightHip
 {
  OFFSET -7.771700 -0.012900 -0.001300
  CHANNELS 3 Yrotation Xrotation Zrotation
  JOINT RightKnee
  {
   OFFSET 0.000000 -40.869800 0.001200
   CHANNELS 3 Yrotation Xrotation Zrotation
   JOINT RightAnkle
   {
    OFFSET 0.000000 -39.717900 0.002100
    CHANNELS 3 Yrotation Xrotation Zrotation
    JOINT RightToe
    {
     OFFSET 0.000000 -4.965400 11.033500
     CHANNELS 3 Yrotation Xrotation Zrotation
     End Site
     {
      OFFSET 0.000000 -1.423100 5.872300
     }
    }
   }
  }
 }
 JOINT LeftHip
 {
  OFFSET 7.771700 -0.012900 -0.001300
  CHANNELS 3 Yrotation Xrotation Zrotation
  JOINT LeftKnee
  {
   OFFSET 0.000000 -40.869800 0.001200
   CHANNELS 3 Yrotation Xrotation Zrotation
   JOINT LeftAnkle
   {
    OFFSET 0.000000 -39.717900 0.002100
    CHANNELS 3 Yrotation Xrotation Zrotation
    JOINT LeftToe
    {
     OFFSET 0.000000 -4.965400 11.033500
     CHANNELS 3 Yrotation Xrotation Zrotation
     End Site
     {
      OFFSET 0.000000 -1.423100 5.872300
     }
    }
   }
  }
 }
}
MOTION
Frames: 7
Frame Time: 0.008333
-27.597407 62.104974 12.262749 177.244856 -52.015620 -0.258746 3.606185 27.438051 1.648665 0.503696 4.793295 0.263302 0.796711 7.578440 0.439439 2.632110 22.206700 1.653116 0.784563 15.766306 0.942319 1.121019 -6.518732 1.471840 6.106092 5.606502 4.727847 -1.877593 -12.604661 -15.452087 -133.074139 -58.226655 164.790795 17.838599 -0.156390 -17.194977 -10.898595 2.567253 -0.458026 -3.933876 -7.130743 16.499010 165.772479 -68.460128 175.778151 -0.777616 -0.534371 0.836975 2.906382 -14.994256 -6.731695 -1.691542 61.766186 -5.558332 1.532976 -8.386707 10.462166 0.215203 -0.540794 0.083358 -3.671578 -12.067252 1.383284 24.580905 76.644245 24.952281 0.883817 -11.708621 -3.244484 0.152679 0.609798 0.062157
-27.596572 62.105378 12.264169 177.240817 -52.013414 -0.260579 3.591052 27.445814 1.649863 0.511393 4.787275 0.260420 0.794901 7.579018 0.438751 2.634062 22.204424 1.649931 0.792476 15.785730 0.937073 1.150532 -6.486337 1.450212 6.130717 5.608535 4.736468 -1.880158 -12.606945 -15.464060 -133.034460 -58.229370 164.769117 17.859300 -0.151775 -17.212075 -10.904353 2.570806 -0.450890 -3.925315 -7.123403 16.491846 165.743333 -68.470733 175.793133 -0.770061 -0.535348 0.835829 2.904020 -14.997199 -6.725037 -1.701990 61.762382 -5.568536 1.540140 -8.373207 10.461423 0.212518 -0.542841 0.083924 -3.672332 -12.068689 1.384595 24.565770 76.645702 24.942460 0.892628 -11.710870 -3.252321 0.149692 0.611762 0.065389
-27.596958 62.105092 12.266024 177.234021 -52.006752 -0.256026 3.585909 27.443660 1.648818 0.509374 4.788442 0.260086 0.794224 7.576977 0.437784 2.624614 22.205617 1.647537 0.808396 15.802419 0.925059 1.177743 -6.453186 1.427414 6.173730 5.602117 4.746165 -1.886775 -12.602468 -15.480811 -133.036086 -58.234560 164.767719 17.859310 -0.143045 -17.209661 -10.900579 2.572635 -0.450640 -3.913164 -7.126552 16.484703 165.716060 -68.488133 175.802336 -0.762831 -0.535120 0.837902 2.907139 -15.004205 -6.724143 -1.710309 61.757906 -5.574690 1.542706 -8.363703 10.460273 0.211574 -0.541732 0.084737 -3.671135 -12.075061 1.381612 24.539504 76.645144 24.916502 0.915900 -11.709128 -3.258147 0.170807 0.613271 0.069094
-27.598597 62.104234 12.268237 177.225323 -51.996192 -0.245315 3.580053 27.437003 1.643912 0.507687 4.789400 0.257058 0.793626 7.574491 0.440001 2.616123 22.205958 1.645646 0.821397 15.815488 0.912219 1.202740 -6.412967 1.402854 6.192093 5.601329 4.739837 -1.870986 -12.597735 -15.483394 -133.029838 -58.243620 164.761348 17.863478 -0.139210 -17.191748 -10.904668 2.580477 -0.443036 -3.900615 -7.120136 16.470914 165.708330 -68.490626 175.804696 -0.758551 -0.531332 0.838670 2.914220 -15.015712 -6.729099 -1.712679 61.756105 -5.575998 1.542155 -8.358710 10.462735 0.212058 -0.541283 0.082715 -3.669208 -12.085111 1.372153 24.548261 76.638056 24.931786 0.906362 -11.706952 -3.266600 0.198392 0.615766 0.071259
-27.600873 62.104628 12.269353 177.214794 -51.995821 -0.231238 3.577114 27.439663 1.638050 0.504741 4.788645 0.258236 0.792313 7.574102 0.439719 2.613540 22.205414 1.643886 0.827544 15.820043 0.902586 1.228451 -6.362369 1.375604 6.203759 5.603118 4.734077 -1.863849 -12.596175 -15.485942 -133.013041 -58.243514 164.748043 17.872684 -0.130566 -17.176401 -10.903321 2.584304 -0.443134 -3.885100 -7.108059 16.463392 165.697308 -68.483961 175.801324 -0.756362 -0.527690 0.837417 2.924900 -15.016332 -6.737040 -1.714400 61.754976 -5.575232 1.542108 -8.353902 10.467946 0.213870 -0.537359 0.080583 -3.671586 -12.083241 1.359107 24.576636 76.632085 24.955063 0.910071 -11.710702 -3.263619 0.167020 0.619511 0.065972
-27.602834 62.104954 12.270422 177.207367 -51.995499 -0.222827 3.578225 27.440437 1.635309 0.491654 4.791668 0.265525 0.799724 7.570887 0.433483 2.606324 22.204886 1.646310 0.837833 15.840955 0.891306 1.253915 -6.328732 1.345713 6.218569 5.607080 4.730731 -1.863860 -12.597931 -15.493928 -132.996061 -58.245625 164.741173 17.880281 -0.127992 -17.176762 -10.896171 2.585280 -0.450088 -3.880902 -7.095330 16.458195 165.706662 -68.473736 175.791574 -0.755639 -0.526670 0.836771 2.930886 -15.017854 -6.744710 -1.694081 61.755993 -5.552160 1.539709 -8.350392 10.468752 0.209612 -0.534724 0.079600 -3.670544 -12.082382 1.352610 24.582685 76.630716 24.959342 0.910299 -11.715165 -3.261027 0.153060 0.621708 0.064067
-27.604386 62.104876 12.271682 177.203041 -51.992443 -0.219664 3.574834 27.438792 1.635505 0.490483 4.791339 0.266766 0.803549 7.570081 0.429731 2.593017 22.203711 1.652700 0.854855 15.877341 0.873992 1.276933 -6.312574 1.319587 6.235112 5.607987 4.720989 -1.848804 -12.593856 -15.498290 -132.993556 -58.253571 164.739093 17.886108 -0.125720 -17.183225 -10.886211 2.587771 -0.458816 -3.873251 -7.081492 16.452263 165.700109 -68.469042 175.780102 -0.755614 -0.521058 0.831172 2.931137 -15.022102 -6.744589 -1.705846 61.754451 -5.565358 1.549344 -8.347392 10.472595 0.210561 -0.532557 0.080087 -3.669684 -12.084679 1.351623 24.584307 76.630030 24.960105 0.903562 -11.720409 -3.255906 0.150904 0.624282 0.061795
